<svg width="29" height="29" viewBox="0 0 29 29" fill="none" xmlns="http://www.w3.org/2000/svg">
<path d="M18.125 2.71875H10.875C8.37375 2.71875 6.34375 4.74875 6.34375 7.25V23.1154C6.34375 23.9008 6.76667 24.6138 7.45542 24.9763C8.14417 25.3508 8.97792 25.3025 9.63042 24.8675L14.3308 21.7379C14.4275 21.6654 14.5604 21.6654 14.6692 21.7379L19.3696 24.8675C19.72 25.1092 20.1308 25.2179 20.5417 25.2179C20.88 25.2179 21.2304 25.1333 21.5446 24.9642C22.2333 24.6017 22.6562 23.8767 22.6562 23.1033V7.25C22.6562 4.74875 20.6263 2.71875 18.125 2.71875ZM20.8438 23.1154C20.8438 23.2725 20.7471 23.345 20.6867 23.3813C20.6263 23.4175 20.5054 23.4538 20.3725 23.3692L15.6721 20.2396C14.9592 19.7563 14.0408 19.7563 13.3279 20.2396L8.6275 23.3692C8.49458 23.4538 8.37375 23.4175 8.31333 23.3813C8.25292 23.345 8.15625 23.2725 8.15625 23.1154V7.25C8.15625 5.75167 9.37667 4.53125 10.875 4.53125H18.125C19.6233 4.53125 20.8438 5.75167 20.8438 7.25V23.1154Z" fill="#DA0022"/>
</svg>
