<svg width="16" height="16" viewBox="0 0 16 16" fill="none" xmlns="http://www.w3.org/2000/svg">
<path d="M12.673 8.6407C13.7437 7.83081 13.1709 6.12414 11.8284 6.12414H10.9259C10.312 6.12414 9.76968 5.72417 9.58835 5.13765L9.33754 4.32637C8.9309 3.01106 7.0691 3.01106 6.66246 4.32637L6.41165 5.13765C6.23032 5.72417 5.68802 6.12414 5.07411 6.12414H4.12961C2.79142 6.12414 2.21592 7.8217 3.27822 8.6355L4.16136 9.31206C4.62552 9.66764 4.81981 10.2742 4.64863 10.8333L4.3463 11.8207C3.94749 13.1232 5.455 14.1704 6.53634 13.342L7.14861 12.8729C7.65097 12.4881 8.34903 12.4881 8.85139 12.8729L9.44736 13.3295C10.5302 14.1591 12.0392 13.1079 11.6363 11.8046L11.33 10.8137C11.1559 10.2508 11.353 9.63912 11.8229 9.28366L12.673 8.6407Z" fill="#FFAD33"/>
</svg>
