<svg width="25" height="41" viewBox="0 0 25 41" fill="none" xmlns="http://www.w3.org/2000/svg">
<path d="M19.7775 27.1672C20.0101 27.1347 20.2169 27.3513 20.2443 27.6544C20.3011 28.3073 20.3646 29.3112 20.3602 30.2081C20.3576 30.8735 20.3145 31.4881 20.2032 31.8832C20.1234 32.1685 19.8796 32.3167 19.6617 32.2097C19.4428 32.1056 19.3295 31.7879 19.4112 31.5031C19.4884 31.2329 19.5159 30.7486 19.5204 30.2023C19.5204 29.3708 19.4569 28.4085 19.4045 27.776C19.3793 27.4729 19.5462 27.2026 19.7775 27.1672ZM17.8535 4.21418C18.245 4.15755 18.6138 4.14298 18.9572 4.17837C19.2874 4.21126 19.5921 4.29121 19.8653 4.42487C20.0842 4.52897 20.327 4.38323 20.4067 4.09842C20.4865 3.81319 20.3748 3.49549 20.1569 3.39139C19.8085 3.22525 19.4285 3.12407 19.0232 3.08243C18.6276 3.03788 18.2038 3.05245 17.76 3.11782C17.2125 3.19527 17.2964 4.29204 17.8535 4.21418ZM7.25374 4.21418C6.86223 4.15755 6.49337 4.14298 6.15005 4.17837C5.8198 4.21126 5.51476 4.29121 5.24195 4.42487C5.02339 4.52897 4.77993 4.38323 4.70016 4.09842C4.62039 3.81319 4.73207 3.49549 4.95064 3.39139C5.29875 3.22525 5.67909 3.12407 6.084 3.08243C6.47966 3.03788 6.90275 3.05245 7.34659 3.11782C7.89444 3.19527 7.81085 4.29204 7.25374 4.21418ZM4.853 23.2398H20.2967V24.4045H4.853V23.2398ZM4.853 15.6024H20.2967V16.7671H4.853V15.6024ZM20.155 18.3398L20.1084 19.1476L19.5487 19.1143H19.4977L19.4766 20.6807L19.5108 21.8433H18.662L18.7045 20.7915L18.6834 19.1143H18.6285L18.0644 19.1476L18.0133 19.0701L18.0599 18.2619H20.1084L20.155 18.3398ZM17.7064 20.6757L17.7405 21.8437H16.8159L16.0437 19.9283H15.9926L15.9888 20.5483L16.0223 21.8437H15.2501L15.2926 20.7919L15.2501 18.2623H16.1748L16.947 20.1777H16.998L16.9725 18.301L17.7527 18.2403L17.7064 20.6757ZM14.9234 20.958L14.9697 21.0355L14.9193 21.8437H12.9847L13.0271 20.7919L12.9847 18.2623H14.9528L14.9993 18.3402L14.9445 19.148L14.2696 19.1147H13.8328L13.8248 19.6185H14.2441L14.6854 19.6018L14.732 19.6793L14.6809 20.4871L14.1892 20.4709H13.8073L13.8034 20.6811L13.8114 20.9909H14.2189L14.9234 20.958ZM12.6232 21.8437H11.8765L11.8555 20.759L11.8089 19.8567H11.7578L11.3166 21.506H10.6765L10.3111 19.8567H10.2601L10.2007 20.6536L10.1583 21.8437H9.44963L9.71702 18.2619H10.6966L10.7776 18.7711L11.0195 20.072H11.0699L11.3373 18.8099L11.4352 18.2619H12.4024L12.6232 21.8437ZM9.26648 20.958L9.31306 21.0355L9.26201 21.8437H7.32808L7.36988 20.7919L7.32808 18.2623H9.29615L9.34274 18.3402L9.28722 19.148L8.61301 19.1147H8.17619L8.16757 19.6185H8.58748L9.02876 19.6018L9.07535 19.6793L9.0243 20.4871L8.5326 20.4709H8.15066L8.1462 20.6811L8.15481 20.9909H8.56164L9.26648 20.958ZM6.41552 18.2011C6.65866 18.2011 6.88744 18.2511 7.10218 18.3506L6.95827 19.2308L6.90275 19.275C6.82936 19.2233 6.74449 19.1817 6.64844 19.1505C6.5524 19.1193 6.46274 19.1034 6.38106 19.1034C6.20844 19.1034 6.08368 19.1688 6.00774 19.3C5.9318 19.4311 5.89319 19.6493 5.89319 19.9562C5.89319 20.3139 5.93754 20.5749 6.02465 20.7394C6.1124 20.9039 6.2496 20.9859 6.43594 20.9859C6.51507 20.9859 6.60346 20.9759 6.70141 20.9555C6.79873 20.9351 6.88456 20.9068 6.95827 20.8698L7.0256 20.9251L6.95827 21.8C6.7882 21.8699 6.59197 21.9053 6.36862 21.9053C5.91297 21.9053 5.57028 21.75 5.33959 21.4402C5.1089 21.1304 4.99403 20.6782 4.99403 20.084C4.99403 19.4861 5.11783 19.0231 5.36512 18.6945C5.61272 18.3656 5.96243 18.2011 6.41552 18.2011ZM3.01543 18.0799C2.92513 15.5004 2.77963 13.8099 2.71007 13.1815C2.46853 11.0105 2.49565 9.54271 2.56617 6.84909C2.5751 6.50182 2.60031 6.23741 2.62073 6.03838C2.72539 4.96035 2.73432 4.87124 1.68775 4.50274C1.30773 4.36907 1.0279 4.1792 0.913988 3.85525C0.800077 3.52838 0.811563 3.0358 0.995671 2.29587C1.37793 2.26048 1.80804 2.29587 2.24518 2.3346C2.83675 2.38498 3.44012 2.43578 4.02244 2.32835C4.82588 2.18012 5.69281 1.99274 6.59165 1.79995C7.70714 1.55928 8.87433 1.64964 10.0281 1.44769C12.3813 1.03796 11.5594 1.02006 13.753 1.26947C15.9649 1.5218 18.2201 1.7046 20.7871 2.38789C20.8171 2.39664 20.8464 2.39997 20.8736 2.39997L24.071 2.34334C24.1664 2.90755 24.1821 3.33518 24.1071 3.65913C24.0273 4.00057 23.818 4.25332 23.461 4.46401L23.4105 4.49358C22.7692 4.87665 22.512 5.02822 22.3755 5.45294C22.2871 5.72609 22.3002 5.96968 22.3231 6.37357C22.3394 6.66171 22.3643 7.05687 22.3531 7.5911C22.3094 9.8067 22.2635 11.3544 21.9654 13.57C21.9055 14.0393 21.7765 14.9337 21.6601 17.5611C21.5561 19.9212 21.551 18.7266 21.6425 20.9189C21.751 23.5022 21.9029 25.1111 21.9654 25.5979C22.2635 27.8135 22.3094 30.3051 22.3531 32.5203C22.3643 33.055 22.3394 33.4497 22.3231 33.7383C22.3002 34.1422 22.2871 34.3857 22.3755 34.6589C22.512 35.0836 22.7692 35.2348 23.4105 35.6183L23.461 35.6474C23.818 35.8585 24.0273 36.1108 24.1071 36.4527C24.1818 36.7762 24.1664 37.2039 24.071 37.7681L20.8736 37.7114C20.8461 37.7114 20.8168 37.7148 20.7871 37.7231C18.2201 38.4064 15.9649 38.6746 13.753 38.9269C11.5594 39.1767 12.3813 39.1588 10.0281 38.7487C8.87465 38.5467 7.70746 38.5517 6.59165 38.3111C5.69313 38.1183 4.82588 37.9313 4.02244 37.7826C3.4398 37.6756 2.83675 37.726 2.24518 37.7764C1.80836 37.8151 1.37824 37.8505 0.995671 37.8151C0.811244 37.0756 0.800077 36.5826 0.913988 36.2562C1.02758 35.9326 1.30773 35.7423 1.68775 35.6087C2.73432 35.2402 2.72539 35.1511 2.62073 34.073C2.60031 33.8736 2.5751 33.6096 2.56617 33.2623C2.49565 30.5687 2.46853 28.157 2.71007 25.9863C2.7774 25.3751 2.90599 23.5396 3.00267 20.8981C3.07542 18.9269 3.0802 19.9262 3.01543 18.0799ZM22.491 17.564C22.5857 14.9903 22.7453 14.1929 22.8008 13.7782C23.0755 11.3457 23.153 10.0803 23.1996 7.61233C23.2108 6.99732 23.1885 6.58801 23.1696 6.2878C23.1566 6.05004 23.1473 5.90472 23.1566 5.88057C23.1677 5.84809 23.3384 5.74691 23.766 5.49124L23.8164 5.46168C24.4054 5.1115 24.7606 4.64514 24.9175 3.97392C25.0608 3.35933 25.0129 2.61108 24.8084 1.63673C24.758 1.40188 24.5921 1.22992 24.3965 1.23283L20.9096 1.29529C18.3177 0.609495 16.0443 0.420455 13.8277 0.167706C11.5817 -0.0908714 12.3469 -0.0667208 9.92154 0.354665C8.73553 0.559529 7.57026 0.469172 6.45796 0.710262C5.57028 0.90305 4.71452 1.08709 3.90661 1.23574C3.41045 1.32818 2.84855 1.2803 2.29783 1.23283C1.71774 1.18245 1.14851 1.13498 0.625221 1.23866C0.477488 1.26822 0.347624 1.39605 0.290828 1.59217C-0.0595188 2.81261 -0.075472 3.67704 0.147563 4.30953C0.384319 4.98991 0.85751 5.35175 1.46759 5.56578C1.80421 5.68445 1.80198 5.69944 1.78156 5.89847C1.7589 6.12416 1.73146 6.41813 1.72029 6.81328C1.64754 9.58102 1.62521 11.1113 1.8709 13.3356C1.93599 13.921 2.12074 15.53 2.18041 18.0883C2.20785 19.2642 2.19476 19.7001 2.16828 20.8831C2.10989 23.4997 1.93408 25.2635 1.8709 25.8331C1.62521 28.0575 1.64754 30.5312 1.72029 33.2994C1.73178 33.6941 1.75922 33.9881 1.78156 34.2138C1.80198 34.4132 1.80421 34.4278 1.46759 34.5465C0.85751 34.7605 0.384319 35.1228 0.147563 35.8031C-0.075472 36.4356 -0.0595188 37.2996 0.290828 38.5201C0.347624 38.7162 0.477488 38.8436 0.625221 38.8736C1.14883 38.9773 1.71774 38.9302 2.29783 38.8798C2.84855 38.8324 3.41077 38.7845 3.90661 38.8765C4.71452 39.0247 5.57028 39.2092 6.45796 39.4024C7.57026 39.6431 8.73585 39.6377 9.92154 39.8429C12.3472 40.2647 11.5817 40.2881 13.8277 40.0299C16.0443 39.7776 18.3177 39.5032 20.9096 38.8174L24.3965 38.8798C24.5921 38.8828 24.758 38.7104 24.8084 38.4755C25.0129 37.5016 25.0608 36.7529 24.9175 36.1387C24.7606 35.4675 24.4054 35.0012 23.8164 34.651L23.766 34.6214C23.3384 34.3658 23.1677 34.265 23.1566 34.2321C23.1473 34.2084 23.1566 34.063 23.1696 33.8249C23.1885 33.5251 23.2108 33.1153 23.1996 32.5003C23.153 30.032 23.0755 27.8235 22.8008 25.3909C22.7427 24.9583 22.5589 23.4018 22.4705 20.8802C22.4192 19.422 22.4367 19.0389 22.491 17.564ZM4.82524 28.2748C5.05753 28.3073 5.22345 28.5805 5.19856 28.8836C5.15548 29.3945 5.144 29.8754 5.17112 30.3239C5.19632 30.7544 5.25759 31.1525 5.36001 31.5089C5.43978 31.7941 5.3281 32.1118 5.10954 32.2159C4.89097 32.3196 4.64783 32.1739 4.56806 31.8891C4.44075 31.4348 4.36321 30.9389 4.33131 30.4101C4.29717 29.8933 4.30833 29.3412 4.35875 28.762C4.38363 28.4597 4.59455 28.2423 4.82524 28.2748Z" fill="#151515"/>
</svg>
