<svg width="50" height="50" viewBox="0 0 50 50" fill="none" xmlns="http://www.w3.org/2000/svg">
<path d="M8.33339 0.666601C6.88894 0.977713 6.26672 1.28882 5.86672 1.88882C5.4445 2.53327 1.77783 13.7999 1.77783 14.4222C1.77783 15.9333 5.82228 16.7555 8.66672 15.8444C10.8667 15.1333 10.8889 15.111 12.2001 8.39993C12.8445 5.13327 13.3334 2.24438 13.2889 1.95549C13.2445 1.68882 12.9334 1.28882 12.5556 1.08882C11.7556 0.622157 9.55561 0.399935 8.33339 0.666601Z" fill="white"/>
<path d="M18.1556 0.755532C16.2223 1.17775 16.0889 1.37775 15.4667 5.2222C14.3556 12.1333 14.1112 14.1555 14.3778 14.7111C14.7556 15.5333 16.0889 16.0889 17.9778 16.1778C20.0889 16.2889 21.7112 15.9333 22.6889 15.1333L23.4445 14.4889L23.6 8.33331C23.7334 4.06664 23.7112 2.04442 23.5334 1.73331C23.0223 0.777754 20.3334 0.288865 18.1556 0.755532Z" fill="white"/>
<path d="M28.778 0.57782C27.3335 0.911153 26.4891 1.37782 26.3557 1.91115C26.2668 2.22226 26.2668 5.13338 26.3557 8.40004L26.5113 14.3334L27.2446 15.0223C28.2002 15.9334 29.7557 16.3112 31.9557 16.1778C33.9557 16.0667 35.4668 15.4 35.6891 14.5778C35.9335 13.5556 34.1557 2.08893 33.6446 1.53337C33.1113 0.933375 29.9557 0.311152 28.778 0.57782Z" fill="white"/>
<path d="M38.6223 0.644475C37.489 0.88892 36.6667 1.4667 36.6667 2.0667C36.6667 3.15559 38.889 14.0667 39.2001 14.5556C40.4445 16.4667 46.3334 16.8445 47.889 15.1111C48.2667 14.6889 48.2667 14.6 47.8001 12.8889C46.7556 9.04448 44.3779 2.08892 43.9779 1.64447C43.2223 0.822253 40.3334 0.288919 38.6223 0.644475Z" fill="white"/>
<path d="M4 33.3111C4 41.4889 4.06667 48.3555 4.13333 48.5555C4.53333 49.5555 4.33333 49.5555 25 49.5555C45.0667 49.5555 45.0444 49.5555 45.7111 48.6889C45.9111 48.4222 45.9778 44.7778 46 33.3778V18.4444H25H4V33.3111ZM26.6667 23.1111C32.4444 24.0222 36.6444 29.7111 35.7778 35.4222C34.8889 41.3555 29.2 45.6222 23.4667 44.6889C18.7111 43.9111 15.0222 40.2444 14.2222 35.5111C13.1556 29.2889 18.2222 23.2667 24.7778 22.9111C25.0222 22.9111 25.8667 23 26.6667 23.1111Z" fill="white"/>
<path d="M23.1557 27.9333C22.2001 28.3999 21.7335 29.1333 21.5335 30.4222C21.4446 30.9777 21.3113 31.911 21.2224 32.4888C21.0668 33.4222 21.1335 33.6444 22.0001 35.2222C23.3557 37.6666 24.7335 38.3555 26.3557 37.3555C27.3557 36.7333 28.9779 33.7777 28.8224 32.8222C28.7557 32.4222 28.6446 31.6666 28.5557 31.111C28.3113 29.5333 27.6446 28.311 26.8001 27.911C25.8224 27.4444 24.089 27.4666 23.1557 27.9333Z" fill="white"/>
<path d="M27.4 37.1555C26.1555 38.5333 24.1778 38.6 22.7333 37.2666C22.2889 36.8666 22.1333 36.8444 21.4 37.0666C20.0889 37.4889 18.4222 38.4889 17.9111 39.1777C17.3555 39.9333 17.4889 40.1777 19.0667 41.4666C21.8667 43.7777 26.1778 44.1555 29.5778 42.4444C30.7555 41.8444 32.4444 40.2666 32.4444 39.8C32.4444 39.0666 31 38.0444 28.6222 37.0444C27.8667 36.7333 27.8 36.7333 27.4 37.1555Z" fill="white"/>
</svg>
