<svg width="29" height="29" viewBox="0 0 29 29" fill="none" xmlns="http://www.w3.org/2000/svg">
<path d="M23.1516 9.71495L18.3183 5.4012C16.1433 3.45578 12.8566 3.45578 10.6816 5.4012L5.84825 9.71495C4.62784 10.8025 3.927 12.3612 3.927 14.0045V21.6895C3.927 24.227 5.957 26.2933 8.45825 26.2933H20.5416C23.0428 26.2933 25.0728 24.227 25.0728 21.6895V14.0045C25.0728 12.3733 24.372 10.8025 23.1516 9.71495ZM19.0312 22.6562C19.0312 23.1516 18.6203 23.5625 18.1249 23.5625C17.6295 23.5625 17.2187 23.1516 17.2187 22.6562V19.0312C17.2187 17.5329 15.9983 16.3125 14.4999 16.3125C13.0016 16.3125 11.7812 17.5329 11.7812 19.0312V22.6562C11.7812 23.1516 11.3703 23.5625 10.8749 23.5625C10.3795 23.5625 9.96867 23.1516 9.96867 22.6562V19.0312C9.96867 16.53 11.9987 14.5 14.4999 14.5C17.0012 14.5 19.0312 16.53 19.0312 19.0312V22.6562Z" fill="#DA0022"/>
</svg>
