<svg width="29" height="29" viewBox="0 0 29 29" fill="none" xmlns="http://www.w3.org/2000/svg">
<path d="M14.5001 2.41663C7.82646 2.41663 2.41675 7.82633 2.41675 14.5C2.41675 21.1736 7.82646 26.5833 14.5001 26.5833C21.1737 26.5833 26.5834 21.1736 26.5834 14.5C26.5834 7.82633 21.1737 2.41663 14.5001 2.41663Z" stroke="#DA0022" stroke-width="1.8125" stroke-linecap="round" stroke-linejoin="round"/>
<path d="M5.16089 22.1681C5.16089 22.1681 7.85426 18.7292 14.5001 18.7292C21.1459 18.7292 23.8405 22.1681 23.8405 22.1681M14.5001 14.5C15.4615 14.5 16.3835 14.1181 17.0634 13.4383C17.7432 12.7584 18.1251 11.8364 18.1251 10.875C18.1251 9.91359 17.7432 8.99156 17.0634 8.31174C16.3835 7.63192 15.4615 7.25 14.5001 7.25C13.5387 7.25 12.6167 7.63192 11.9368 8.31174C11.257 8.99156 10.8751 9.91359 10.8751 10.875C10.8751 11.8364 11.257 12.7584 11.9368 13.4383C12.6167 14.1181 13.5387 14.5 14.5001 14.5Z" stroke="#DA0022" stroke-width="1.8125" stroke-linecap="round" stroke-linejoin="round"/>
</svg>
