<svg width="29" height="29" viewBox="0 0 29 29" fill="none" xmlns="http://www.w3.org/2000/svg">
<path d="M20.2397 11.2738V8.45833C20.2397 5.2925 17.6659 2.71875 14.5001 2.71875C11.3342 2.71875 8.7605 5.2925 8.7605 8.45833V11.2738C6.69425 11.6967 5.1355 13.5213 5.1355 15.7083V21.75C5.1355 24.2513 7.1655 26.2812 9.66675 26.2812H19.3334C21.8347 26.2812 23.8647 24.2513 23.8647 21.75V15.7083C23.8647 13.5213 22.3059 11.6846 20.2397 11.2738ZM14.5001 4.53125C16.663 4.53125 18.4272 6.29542 18.4272 8.45833V11.1771H10.573V8.45833C10.573 6.29542 12.3372 4.53125 14.5001 4.53125ZM22.0522 21.75C22.0522 23.2483 20.8317 24.4688 19.3334 24.4688H9.66675C8.16841 24.4688 6.948 23.2483 6.948 21.75V15.7083C6.948 14.21 8.16841 12.9896 9.66675 12.9896H19.3334C20.8317 12.9896 22.0522 14.21 22.0522 15.7083V21.75Z" fill="#DA0022"/>
<path d="M14.5 16.0104C14.0046 16.0104 13.5938 16.4212 13.5938 16.9166V20.5416C13.5938 21.037 14.0046 21.4479 14.5 21.4479C14.9954 21.4479 15.4062 21.037 15.4062 20.5416V16.9166C15.4062 16.4212 14.9954 16.0104 14.5 16.0104Z" fill="#DA0022"/>
</svg>
