<svg width="32" height="32" viewBox="0 0 32 32" fill="none" xmlns="http://www.w3.org/2000/svg">
<g clip-path="url(#clip0_197_2913)">
<path d="M28.3532 1.35393C28.4097 1.29716 28.4517 1.22765 28.4758 1.15125C28.4998 1.07484 28.5052 0.993775 28.4914 0.914875C28.4775 0.835975 28.445 0.761549 28.3964 0.697865C28.3478 0.63418 28.2846 0.583101 28.2122 0.548927C27.0948 0.0212275 25.8414 -0.147588 24.6242 0.065665C23.407 0.278918 22.2856 0.863781 21.4142 1.73993C19.7162 3.44893 19.1232 6.13293 19.9152 8.37693L8.37617 19.9159C7.73512 19.6899 7.05988 19.5763 6.38017 19.5799C4.66617 19.5799 3.00417 20.2619 1.82117 21.4519C0.952783 22.3166 0.365847 23.4234 0.137265 24.6273C-0.0913174 25.8313 0.049117 27.0762 0.540167 28.1989C0.572354 28.2741 0.622552 28.3402 0.686329 28.3913C0.750107 28.4425 0.825501 28.4772 0.905854 28.4923C0.986207 28.5074 1.06905 28.5025 1.14706 28.478C1.22507 28.4536 1.29586 28.4103 1.35317 28.3519L4.84417 24.8429C5.07417 24.6109 5.44517 24.5799 5.63717 24.7749L7.14417 26.3519C7.36317 26.5729 7.35317 26.9139 7.12217 27.1469L3.64417 30.6469C3.58764 30.7036 3.54558 30.773 3.52152 30.8494C3.49747 30.9257 3.49213 31.0067 3.50595 31.0855C3.51978 31.1644 3.55236 31.2387 3.60096 31.3023C3.64955 31.3659 3.71273 31.4169 3.78517 31.4509C4.59442 31.837 5.47954 32.0379 6.37617 32.0389C7.94817 32.0389 9.44117 31.4069 10.5832 30.2589C12.2812 28.5509 12.8742 25.8669 12.0812 23.6229L23.6202 12.0829C24.2616 12.3088 24.9371 12.4225 25.6172 12.4189C27.3312 12.4189 28.9932 11.7369 30.1762 10.5469C31.0445 9.68228 31.6315 8.57547 31.8601 7.37153C32.0886 6.16759 31.9482 4.92269 31.4572 3.79993C31.425 3.72477 31.3748 3.65869 31.311 3.60752C31.2472 3.55636 31.1718 3.52168 31.0915 3.50656C31.0111 3.49144 30.9283 3.49633 30.8503 3.52081C30.7723 3.5453 30.7015 3.58861 30.6442 3.64693L27.1532 7.15593C27.0453 7.26019 26.9006 7.31764 26.7506 7.31577C26.6006 7.31389 26.4574 7.25285 26.3522 7.14593L24.8532 5.64693C24.7997 5.59559 24.7571 5.53398 24.728 5.46581C24.6989 5.39763 24.6838 5.32427 24.6838 5.25014C24.6837 5.17601 24.6985 5.10262 24.7275 5.03437C24.7564 4.96611 24.7988 4.9044 24.8522 4.85293L28.3532 1.35393ZM24.1452 6.35393L25.6442 7.85293C26.2432 8.45493 27.2692 8.45793 27.8622 7.86193L30.7922 4.91793C31.0243 5.78292 31.0241 6.69382 30.7916 7.55871C30.5591 8.42359 30.1026 9.21185 29.4682 9.84393C28.4712 10.8469 27.0692 11.4209 25.6182 11.4209C24.9352 11.4209 24.2882 11.2929 23.6952 11.0409C23.6035 11.0019 23.5023 10.9911 23.4045 11.01C23.3066 11.0289 23.2167 11.0766 23.1462 11.1469L11.1462 23.1469C11.0759 23.2171 11.0282 23.3067 11.0092 23.4041C10.9901 23.5015 11.0006 23.6025 11.0392 23.6939C11.8422 25.6039 11.3532 28.0689 9.87617 29.5549C9.23976 30.2005 8.43849 30.6591 7.55955 30.8809C6.68061 31.1027 5.75767 31.0792 4.89117 30.8129L7.83217 27.8529C8.45317 27.2279 8.46317 26.2589 7.86117 25.6549L6.35517 24.0779C5.77417 23.4929 4.74117 23.5289 4.13717 24.1399L1.20717 27.0839C0.975077 26.2189 0.975274 25.308 1.20774 24.4432C1.4402 23.5783 1.8967 22.79 2.53117 22.1579C3.52817 21.1549 4.93017 20.5809 6.38117 20.5809C7.06417 20.5809 7.71117 20.7089 8.30417 20.9609C8.39577 21.0002 8.49707 21.0112 8.59495 20.9923C8.69282 20.9734 8.78278 20.9255 8.85317 20.8549L20.8532 8.85493C20.9234 8.78474 20.9711 8.6952 20.9902 8.59776C21.0092 8.50032 20.9988 8.3994 20.9602 8.30793C20.1572 6.39793 20.6462 3.93193 22.1232 2.44593C22.7594 1.80103 23.5601 1.34279 24.4384 1.12101C25.3168 0.899222 26.2391 0.922367 27.1052 1.18793L24.1452 4.14893C23.9988 4.29281 23.8825 4.46441 23.8032 4.65369C23.7238 4.84298 23.683 5.04618 23.683 5.25143C23.683 5.45668 23.7238 5.65987 23.8032 5.84916C23.8825 6.03845 23.9988 6.21004 24.1452 6.35393Z" fill="#151515"/>
<path d="M29.2101 30.6469C29.0989 30.7539 28.9505 30.8135 28.7962 30.8131C28.6419 30.8127 28.4938 30.7524 28.3831 30.6449L18.3531 20.6449C18.2575 20.5595 18.1328 20.5139 18.0047 20.5176C17.8765 20.5213 17.7546 20.574 17.6642 20.6649C17.5737 20.7557 17.5215 20.8778 17.5183 21.006C17.5151 21.1342 17.5612 21.2587 17.6471 21.3539L27.6761 31.3519C27.9761 31.6529 28.3741 31.8189 28.7981 31.8189C29.2221 31.8189 29.6201 31.6529 29.9261 31.3449L31.3551 29.8519C31.5012 29.7078 31.6172 29.536 31.6963 29.3466C31.7755 29.1572 31.8162 28.954 31.8161 28.7487C31.816 28.5435 31.7751 28.3403 31.6958 28.151C31.6165 27.9617 31.5003 27.79 31.3541 27.6459L21.3541 17.6459C21.2598 17.5549 21.1335 17.5045 21.0024 17.5056C20.8713 17.5067 20.7459 17.5593 20.6532 17.652C20.5605 17.7447 20.5079 17.8701 20.5068 18.0012C20.5056 18.1323 20.556 18.2586 20.6471 18.3529L30.6461 28.3519C30.8751 28.5819 30.8751 28.9159 30.6391 29.1539L29.2101 30.6469ZM5.85413 3.14594L2.85413 0.145935C2.76036 0.0521999 2.63321 -0.000457764 2.50063 -0.000457764C2.36804 -0.000457764 2.24089 0.0521999 2.14713 0.145935L0.147126 2.14594C0.0533901 2.2397 0.000732422 2.36685 0.000732422 2.49944C0.000732422 2.63202 0.0533901 2.75917 0.147126 2.85294L3.14713 5.85294C3.24102 5.94632 3.368 5.99882 3.50042 5.99901C3.63284 5.9992 3.75997 5.94705 3.85413 5.85394L4.50013 5.20694L12.1461 12.8529C12.1922 12.9008 12.2473 12.9389 12.3083 12.9652C12.3692 12.9915 12.4348 13.0054 12.5012 13.006C12.5676 13.0067 12.6334 12.9942 12.6949 12.9691C12.7564 12.944 12.8123 12.907 12.8593 12.8601C12.9063 12.8132 12.9435 12.7575 12.9687 12.6961C12.994 12.6347 13.0067 12.5688 13.0062 12.5024C13.0057 12.4361 12.992 12.3704 12.9659 12.3094C12.9398 12.2484 12.9018 12.1931 12.8541 12.1469L5.20713 4.49994L5.85313 3.85394C5.89976 3.80756 5.93678 3.75243 5.96207 3.69172C5.98736 3.63101 6.00043 3.56591 6.00052 3.50014C6.00061 3.43438 5.98773 3.36924 5.96261 3.30846C5.93749 3.24768 5.90062 3.19245 5.85413 3.14594ZM3.50013 4.79294L1.20713 2.49994L2.50013 1.20694L4.79313 3.49994L3.50013 4.79294Z" fill="#151515"/>
</g>
<defs>
<clipPath id="clip0_197_2913">
<rect width="32" height="32" fill="white"/>
</clipPath>
</defs>
</svg>
